<svg width="121" height="14" viewBox="0 0 121 14" fill="none" xmlns="http://www.w3.org/2000/svg">
<path d="M11.1094 9.30859L12.832 0.203125H15.46L12.6211 13H9.9668L7.88379 4.43945L5.80078 13H3.14648L0.307617 0.203125H2.93555L4.66699 9.29102L6.77637 0.203125H9.00879L11.1094 9.30859ZM24.5918 7.4541H19.5293V10.8818H25.4707V13H16.8926V0.203125H25.4531V2.33887H19.5293V5.38867H24.5918V7.4541ZM27.0176 13V0.203125H31.5C33.0527 0.203125 34.2305 0.501953 35.0332 1.09961C35.8359 1.69141 36.2373 2.56152 36.2373 3.70996C36.2373 4.33691 36.0762 4.89062 35.7539 5.37109C35.4316 5.8457 34.9834 6.19434 34.4092 6.41699C35.0654 6.58105 35.5811 6.91211 35.9561 7.41016C36.3369 7.9082 36.5273 8.51758 36.5273 9.23828C36.5273 10.4688 36.1348 11.4004 35.3496 12.0332C34.5645 12.666 33.4453 12.9883 31.9922 13H27.0176ZM29.6543 7.42773V10.8818H31.9131C32.5342 10.8818 33.0176 10.7354 33.3633 10.4424C33.7148 10.1436 33.8906 9.7334 33.8906 9.21191C33.8906 8.04004 33.2842 7.44531 32.0713 7.42773H29.6543ZM29.6543 5.56445H31.6055C32.9355 5.54102 33.6006 5.01074 33.6006 3.97363C33.6006 3.39355 33.4307 2.97754 33.0908 2.72559C32.7568 2.46777 32.2266 2.33887 31.5 2.33887H29.6543V5.56445ZM38.4785 11.752C38.4785 11.3477 38.6133 11.0195 38.8828 10.7676C39.1582 10.5156 39.501 10.3896 39.9111 10.3896C40.3271 10.3896 40.6699 10.5156 40.9395 10.7676C41.2148 11.0195 41.3525 11.3477 41.3525 11.752C41.3525 12.1504 41.2178 12.4756 40.9482 12.7275C40.6787 12.9736 40.333 13.0967 39.9111 13.0967C39.4951 13.0967 39.1523 12.9736 38.8828 12.7275C38.6133 12.4756 38.4785 12.1504 38.4785 11.752ZM46.3887 8.49121V13H43.752V0.203125H48.7441C49.7051 0.203125 50.5488 0.378906 51.2754 0.730469C52.0078 1.08203 52.5703 1.58301 52.9629 2.2334C53.3555 2.87793 53.5518 3.61328 53.5518 4.43945C53.5518 5.69336 53.1211 6.68359 52.2598 7.41016C51.4043 8.13086 50.2178 8.49121 48.7002 8.49121H46.3887ZM46.3887 6.35547H48.7441C49.4414 6.35547 49.9717 6.19141 50.335 5.86328C50.7041 5.53516 50.8887 5.06641 50.8887 4.45703C50.8887 3.83008 50.7041 3.32324 50.335 2.93652C49.9658 2.5498 49.4561 2.35059 48.8057 2.33887H46.3887V6.35547ZM60.1084 8.31543H58.0078V13H55.3711V0.203125H60.126C61.6377 0.203125 62.8037 0.540039 63.624 1.21387C64.4443 1.8877 64.8545 2.83984 64.8545 4.07031C64.8545 4.94336 64.6641 5.67285 64.2832 6.25879C63.9082 6.83887 63.3369 7.30176 62.5693 7.64746L65.3379 12.877V13H62.5078L60.1084 8.31543ZM58.0078 6.17969H60.1348C60.7969 6.17969 61.3096 6.0127 61.6729 5.67871C62.0361 5.33887 62.2178 4.87305 62.2178 4.28125C62.2178 3.67773 62.0449 3.20312 61.6992 2.85742C61.3594 2.51172 60.835 2.33887 60.126 2.33887H58.0078V6.17969ZM77.3789 6.8916C77.3789 8.15137 77.1562 9.25586 76.7109 10.2051C76.2656 11.1543 75.627 11.8867 74.7949 12.4023C73.9688 12.918 73.0195 13.1758 71.9473 13.1758C70.8867 13.1758 69.9404 12.9209 69.1084 12.4111C68.2764 11.9014 67.6318 11.1748 67.1748 10.2314C66.7178 9.28223 66.4863 8.19238 66.4805 6.96191V6.3291C66.4805 5.06934 66.7061 3.96191 67.1572 3.00684C67.6143 2.0459 68.2559 1.31055 69.082 0.800781C69.9141 0.285156 70.8633 0.0273438 71.9297 0.0273438C72.9961 0.0273438 73.9424 0.285156 74.7686 0.800781C75.6006 1.31055 76.2422 2.0459 76.6934 3.00684C77.1504 3.96191 77.3789 5.06641 77.3789 6.32031V6.8916ZM74.707 6.31152C74.707 4.96973 74.4668 3.9502 73.9863 3.25293C73.5059 2.55566 72.8203 2.20703 71.9297 2.20703C71.0449 2.20703 70.3623 2.55273 69.8818 3.24414C69.4014 3.92969 69.1582 4.9375 69.1523 6.26758V6.8916C69.1523 8.19824 69.3926 9.21191 69.873 9.93262C70.3535 10.6533 71.0449 11.0137 71.9473 11.0137C72.832 11.0137 73.5117 10.668 73.9863 9.97656C74.4609 9.2793 74.7012 8.26562 74.707 6.93555V6.31152ZM84.4541 0.203125H87.0908V9.0625C87.0908 9.87695 86.9092 10.5977 86.5459 11.2246C86.1885 11.8457 85.6816 12.3262 85.0254 12.666C84.3691 13.0059 83.6279 13.1758 82.8018 13.1758C81.4482 13.1758 80.3936 12.833 79.6377 12.1475C78.8818 11.4561 78.5039 10.4805 78.5039 9.2207H81.1582C81.1582 9.84766 81.29 10.3105 81.5537 10.6094C81.8174 10.9082 82.2334 11.0576 82.8018 11.0576C83.3057 11.0576 83.707 10.8848 84.0059 10.5391C84.3047 10.1934 84.4541 9.70117 84.4541 9.0625V0.203125ZM97.0488 7.4541H91.9863V10.8818H97.9277V13H89.3496V0.203125H97.9102V2.33887H91.9863V5.38867H97.0488V7.4541ZM109.521 8.7373C109.421 10.1143 108.911 11.1982 107.991 11.9893C107.077 12.7803 105.87 13.1758 104.37 13.1758C102.729 13.1758 101.438 12.625 100.494 11.5234C99.5566 10.416 99.0879 8.89844 99.0879 6.9707V6.18848C99.0879 4.95801 99.3047 3.87402 99.7383 2.93652C100.172 1.99902 100.79 1.28125 101.593 0.783203C102.401 0.279297 103.339 0.0273438 104.405 0.0273438C105.882 0.0273438 107.071 0.422852 107.974 1.21387C108.876 2.00488 109.397 3.11523 109.538 4.54492H106.901C106.837 3.71875 106.605 3.12109 106.207 2.75195C105.814 2.37695 105.214 2.18945 104.405 2.18945C103.526 2.18945 102.867 2.50586 102.428 3.13867C101.994 3.76562 101.771 4.74121 101.76 6.06543V7.03223C101.76 8.41504 101.968 9.42578 102.384 10.0645C102.806 10.7031 103.468 11.0225 104.37 11.0225C105.185 11.0225 105.791 10.8379 106.189 10.4688C106.594 10.0938 106.825 9.5166 106.884 8.7373H109.521ZM120.621 2.33887H116.701V13H114.064V2.33887H110.197V0.203125H120.621V2.33887Z" fill="#FEFEFE"/>
</svg>
